<svg width="53" height="53" viewBox="0 0 53 53" fill="none" xmlns="http://www.w3.org/2000/svg">
<rect width="53" height="53" rx="26.5" fill="white" fill-opacity="0.87"/>
<path d="M40.4084 12.6104C39.5472 11.7492 38.1559 11.7492 37.2947 12.6104L26.4959 23.3871L15.6972 12.5883C14.8359 11.7271 13.4447 11.7271 12.5834 12.5883C11.7222 13.4496 11.7222 14.8408 12.5834 15.7021L23.3822 26.5008L12.5834 37.2996C11.7222 38.1608 11.7222 39.5521 12.5834 40.4133C13.4447 41.2746 14.8359 41.2746 15.6972 40.4133L26.4959 29.6146L37.2947 40.4133C38.1559 41.2746 39.5472 41.2746 40.4084 40.4133C41.2697 39.5521 41.2697 38.1608 40.4084 37.2996L29.6097 26.5008L40.4084 15.7021C41.2476 14.8629 41.2476 13.4496 40.4084 12.6104Z" fill="#463434"/>
</svg>
